<svg width="1647" height="1000" viewBox="0 0 1647 1000" fill="none" xmlns="http://www.w3.org/2000/svg">
<path fill-rule="evenodd" clip-rule="evenodd" d="M470.56 294.1L588.2 176.46H647.02H882.3H941.12H999.94H1117.58H1235.22H1352.86V176.754H1470.5L1352.86 294.394V294.1H1176.4L1146.99 294.1L1117.58 294.1H999.94H941.12L1058.76 411.74L1175.81 294.688H1352.27L1235.22 411.74L1146.99 499.97L1176.4 529.38L1294.04 647.02H1352.86V764.66H1235.22L1117.58 647.02L999.94 529.38L882.3 411.74L764.66 294.1H647.02L529.38 411.74H588.2L705.84 529.38H411.74L294.1 647.02H352.92H470.56H588.2H705.84H823.48L882.3 764.66L823.48 882.3L764.66 764.66H705.84H588.2H470.56H352.92H235.28H117.64H0L117.64 647.02L235.28 529.38L352.92 411.74L470.56 294.1ZM1617.55 294.394H1411.68L1529.32 176.754H1617.55V294.394Z" fill="black"/>
</svg>
