<svg width="1471" height="1000" viewBox="0 0 1471 1000" fill="none" xmlns="http://www.w3.org/2000/svg">
<path fill-rule="evenodd" clip-rule="evenodd" d="M499.97 294.1L617.61 176.46H735.25H852.89H970.53H1088.17L1205.81 294.1H1029.35H999.94H970.53H852.89H794.07L911.71 411.74L1028.76 294.688H1205.22L1088.17 411.74L999.94 499.97L1029.35 529.38L1146.99 647.02H1205.81V764.66H1088.17L970.53 647.02L852.89 529.38L735.25 411.74L647.02 323.51L558.79 411.74L676.43 529.38H441.15L323.51 647.02H382.33H499.97H617.61H735.25H794.07L911.71 764.66L852.89 882.3L794.07 764.66H735.25H617.61H499.97H382.33H264.69H147.05H29.41L147.05 647.02L264.69 529.38L382.33 411.74L499.97 294.1Z" fill="black"/>
</svg>
