<svg width="1118" height="1000" viewBox="0 0 1118 1000" fill="none" xmlns="http://www.w3.org/2000/svg">
<path fill-rule="evenodd" clip-rule="evenodd" d="M352.92 117.64L294.1 176.46L176.46 294.1L58.82 411.74L176.46 529.38L294.1 647.02L352.92 705.84L411.74 764.66L470.56 823.48L529.38 764.66V647.02H470.56L352.92 529.38L235.28 411.74L352.92 294.1L470.56 411.74V470.56L529.38 529.38L647.02 411.74L529.38 294.1L411.74 176.46L352.92 117.64ZM499.97 176.46L617.61 294.1H794.07L911.71 411.74L794.07 529.38L676.43 647.02L558.79 764.66H676.43H970.53L1088.17 647.02H970.53H852.89L970.53 529.38L1088.17 411.74L970.53 294.1H1088.17V176.46H617.61H499.97Z" fill="black"/>
</svg>
