<svg width="1530" height="1000" viewBox="0 0 1530 1000" fill="none" xmlns="http://www.w3.org/2000/svg">
<path fill-rule="evenodd" clip-rule="evenodd" d="M499.97 294.1L617.61 176.46H676.43H794.07H911.71H1029.35H1146.99H1264.63H1382.27L1264.63 294.1H1088.17L1058.76 294.1L1029.35 294.1H911.71H852.89L970.53 411.74L1087.58 294.688H1264.04L1146.99 411.74L1058.76 499.97L1088.17 529.38L1205.81 647.02H1264.63V764.66H1146.99L1029.35 647.02L911.71 529.38L794.07 411.74L676.43 294.1L558.79 411.74H617.61L735.25 529.38H441.15L323.51 647.02H382.33H499.97H617.61H735.25H852.89L911.71 764.66L852.89 882.3L794.07 764.66H735.25H617.61H499.97H382.33H264.69H147.05H29.41L147.05 647.02L264.69 529.38L382.33 411.74L499.97 294.1ZM1529.32 294.1H1323.45L1441.09 176.46H1529.32V294.1Z" fill="black"/>
</svg>
