<svg width="1353" height="1000" viewBox="0 0 1353 1000" fill="none" xmlns="http://www.w3.org/2000/svg">
<path fill-rule="evenodd" clip-rule="evenodd" d="M205.87 176.46L264.69 58.82H205.87H147.05L88.23 176.46L29.41 294.1L88.23 411.74L147.05 294.1H205.87H323.51H441.15H558.79H617.61L499.97 411.74L382.33 529.38L264.69 647.02H205.87V764.66L264.69 823.48L323.51 764.66L441.15 647.02L558.79 529.38L676.43 411.74L705.84 382.33L735.25 411.74L852.89 529.38L970.53 647.02L1029.35 705.84L1088.17 764.66L1146.99 823.48L1205.81 764.66V647.02H1146.99L1117.58 617.61L1205.81 529.38L1323.45 411.74V176.46H1205.81H1146.99L1205.81 235.28V352.92L1146.99 411.74L1029.35 529.38L911.71 411.74L852.89 352.92L794.07 294.1L852.89 235.28L911.71 176.46H852.89H794.07H735.25H676.43H558.79H441.15H323.51H205.87Z" fill="black"/>
</svg>
