<svg width="1471" height="1000" viewBox="0 0 1471 1000" fill="none" xmlns="http://www.w3.org/2000/svg">
<path fill-rule="evenodd" clip-rule="evenodd" d="M147.05 294.1H29.41V176.46H323.51H794.07H852.89H970.53L852.89 294.1L735.25 411.74L676.43 470.56L558.79 411.74L676.43 294.1H382.33L441.15 352.92H499.97L382.33 470.56L264.69 352.92L205.87 411.74L323.51 529.38L441.15 647.02H499.97V764.66L441.15 823.48L382.33 764.66L323.51 705.84L264.69 647.02L147.05 529.38L29.41 411.74L147.05 294.1ZM1029.35 294.1L1146.99 176.46L1205.81 294.1L1088.17 411.74H1264.63L1323.45 529.38H1264.63H970.53L852.89 647.02H911.71H1029.35H1146.99H1264.63H1382.27L1441.09 764.66L1382.27 882.3L1323.45 764.66H1264.63H1146.99H1029.35H911.71H794.07H676.43H558.79L676.43 647.02L794.07 529.38L911.71 411.74L1029.35 294.1Z" fill="black"/>
</svg>
