<svg width="1118" height="1000" viewBox="0 0 1118 1000" fill="none" xmlns="http://www.w3.org/2000/svg">
<path fill-rule="evenodd" clip-rule="evenodd" d="M323.51 117.64L264.69 176.46L147.05 294.1L29.41 411.74L147.05 529.38L264.69 647.02L323.51 705.84L382.33 764.66L441.15 823.48L499.97 764.66V647.02H441.15L382.33 588.2H647.02L720.545 514.675L676.43 470.56H264.69L205.87 411.74L323.51 294.1L441.15 411.74H499.97H617.61L499.97 294.1L382.33 176.46L323.51 117.64ZM764.66 558.79L794.07 529.38L911.71 411.74L794.07 294.1H617.61L499.97 176.46H617.61H1088.17V294.1H970.53L1088.17 411.74L970.53 529.38L852.89 647.02H970.53H1088.17L970.53 764.66H676.43H558.79L676.43 647.02L764.66 558.79Z" fill="black"/>
</svg>
