<svg width="1118" height="1000" viewBox="0 0 1118 1000" fill="none" xmlns="http://www.w3.org/2000/svg">
<path fill-rule="evenodd" clip-rule="evenodd" d="M294.1 117.64L235.28 176.46L117.64 294.1L0 411.74L117.64 529.38L235.28 647.02L294.1 705.84L352.92 764.66L411.74 823.48L470.56 764.66V647.02H411.74L352.92 588.2H617.61L691.135 514.675L647.02 470.56H235.28L176.46 411.74L294.1 294.1L411.74 411.74H470.56H588.2L470.56 294.1L352.92 176.46L294.1 117.64ZM499.97 176.46L617.61 294.1H794.07L911.71 411.74L794.07 529.38L676.43 647.02L558.79 764.66H676.43H970.53L1088.17 647.02H970.53H852.89L970.53 529.38L1088.17 411.74L970.53 294.1H1088.17V176.46H617.61H499.97Z" fill="black"/>
</svg>
