<svg width="1353" height="1000" viewBox="0 0 1353 1000" fill="none" xmlns="http://www.w3.org/2000/svg">
<path fill-rule="evenodd" clip-rule="evenodd" d="M470.56 294.1L588.2 176.46H823.48H882.3H941.12H1058.76H1176.4L1294.04 294.1H1117.58H1088.17H1058.76H941.12H882.3L999.94 411.74L1116.99 294.688H1293.45L1176.4 411.74L1088.17 499.97L1117.58 529.38L1235.22 647.02H1294.04V764.66H1176.4L1058.76 647.02L941.12 529.38L823.48 411.74L705.84 294.1H647.02L529.38 411.74L647.02 529.38H411.74L294.1 647.02H352.92H470.56H588.2H705.84H764.66L882.3 764.66L823.48 882.3L764.66 764.66H705.84H588.2H470.56H352.92H235.28H117.64H0L117.64 647.02L235.28 529.38L352.92 411.74L470.56 294.1Z" fill="black"/>
</svg>
