<svg width="1647" height="1000" viewBox="0 0 1647 1000" fill="none" xmlns="http://www.w3.org/2000/svg">
<path fill-rule="evenodd" clip-rule="evenodd" d="M1296.64 176.46L1355.46 117.64L1414.28 176.46V294.1H1355.46L1237.82 411.74L1120.18 529.38L1002.54 647.02H1061.36H1179H1296.64H1414.28H1531.92L1590.74 764.66H1531.92H1414.28H1296.64H1179H1061.36H943.719H911.71H884.899L767.259 882.3L708.439 764.66H705.84H617.61H499.97H382.33H264.69H147.05H29.41L147.05 647.02L264.69 529.38L382.33 411.74L499.97 294.1L617.61 176.46L676.43 294.1L735.25 411.74L676.43 529.38L617.61 411.74H558.79L441.15 529.38L323.51 647.02H382.33H499.97H617.61H735.25H823.48H826.079L943.719 529.38L1061.36 411.74L1179 294.1L1237.82 235.28L1296.64 176.46Z" fill="black"/>
</svg>
