<svg width="1236" height="1000" viewBox="0 0 1236 1000" fill="none" xmlns="http://www.w3.org/2000/svg">
<path fill-rule="evenodd" clip-rule="evenodd" d="M235.28 235.28L352.92 117.64L411.74 176.46L470.56 235.28L529.38 294.1L588.2 352.92L705.84 470.56V529.38V588.2L529.38 764.66H470.56V647.02L588.2 529.38L470.56 411.74L411.74 352.92L352.92 294.1L294.1 235.28H235.28ZM235.28 352.92L117.64 470.56L58.82 529.38V705.84L117.64 764.66H352.92V647.02H176.46V588.2L294.1 470.56H352.92L235.28 352.92ZM705.84 294.1L588.2 176.46H705.84H1176.4V294.1H1058.76L1176.4 411.74L1058.76 529.38L941.12 647.02H1058.76H1176.4L1058.76 764.66H764.66H647.02L764.66 647.02L882.3 529.38L999.94 411.74L882.3 294.1H705.84Z" fill="black"/>
</svg>
