<svg width="1353" height="1000" viewBox="0 0 1353 1000" fill="none" xmlns="http://www.w3.org/2000/svg">
<path fill-rule="evenodd" clip-rule="evenodd" d="M176.46 176.46L235.28 58.82H176.46H117.64L58.82 176.46L0 294.1L58.82 411.74L117.64 294.1H176.46H294.1H411.74H529.38H588.2L470.56 411.74L352.92 529.38L235.28 647.02H176.46V764.66L235.28 823.48L294.1 764.66L411.74 647.02L529.38 529.38L647.02 411.74L735.25 323.51V352.92L705.84 382.33L735.25 411.74L852.89 529.38L970.53 647.02L1029.35 705.84L1088.17 764.66L1146.99 823.48L1205.81 764.66V647.02H1146.99L1117.58 617.61L1205.81 529.38L1323.45 411.74V176.46H1205.81H1146.99L1205.81 235.28V352.92L1146.99 411.74L1029.35 529.38L911.71 411.74L852.89 352.92L794.07 294.1L852.89 235.28L911.71 176.46H882.3H852.89H764.66H735.25H647.02H529.38H411.74H294.1H176.46Z" fill="black"/>
</svg>
