<svg width="1589" height="1000" viewBox="0 0 1589 1000" fill="none" xmlns="http://www.w3.org/2000/svg">
<path fill-rule="evenodd" clip-rule="evenodd" d="M88.23 176.46L29.41 294.1H88.23H205.87H323.51H441.15H558.79H617.61L499.97 411.74L382.33 529.38L264.69 647.02H205.87V764.66L264.69 823.48L323.51 764.66L441.15 647.02L558.79 529.38H735.25L617.61 647.02L499.97 764.66H617.61H735.25H852.89H970.53H1088.17H1205.81H1264.63L1323.45 882.3L1382.27 764.66L1323.45 647.02H1205.81H1088.17H970.53H852.89H794.07L911.71 529.38H1058.76H1205.81H1264.63L1205.81 411.74H1058.76H1029.35L1146.99 294.1L1088.17 176.46L970.53 294.1L852.89 411.74H764.66H735.25H676.43L794.07 294.1L911.71 176.46H794.07H676.43H558.79H441.15H323.51H205.87H88.23Z" fill="black"/>
</svg>
