<svg width="1530" height="1000" viewBox="0 0 1530 1000" fill="none" xmlns="http://www.w3.org/2000/svg">
<g clip-path="url(#clip0)">
<path fill-rule="evenodd" clip-rule="evenodd" d="M0 294.1L58.82 176.46H176.46H294.1H411.74H529.38H647.02H764.66H882.3L764.66 294.1L647.02 411.74H705.84H823.48L705.84 529.38H529.38L411.74 647.02L294.1 764.66L235.28 823.48L176.46 764.66V647.02H235.28L352.92 529.38L470.56 411.74L588.2 294.1H529.38H411.74H294.1H176.46H58.82H0ZM1088.17 294.1L1205.81 176.46L1264.63 294.1L1146.99 411.74H1323.45L1382.27 529.38H1323.45H1029.35L911.71 647.02H970.53H1088.17H1205.81H1323.45H1441.09L1499.91 764.66L1441.09 882.3L1382.27 764.66H1323.45H1205.81H1088.17H970.53H852.89H735.25H617.61L735.25 647.02L852.89 529.38L970.53 411.74L1088.17 294.1Z" fill="black"/>
</g>
<defs>
<clipPath id="clip0">
<rect width="25.5" height="17" fill="white" transform="scale(58.82)"/>
</clipPath>
</defs>
</svg>
